<?xml version="1.0" encoding="UTF-8" standalone="no" ?>
<!DOCTYPE svg PUBLIC "-//W3C//DTD SVG 1.1//EN" "http://www.w3.org/Graphics/SVG/1.1/DTD/svg11.dtd">
<svg xmlns="http://www.w3.org/2000/svg" xmlns:xlink="http://www.w3.org/1999/xlink" version="1.1" width="1024" height="1024" viewBox="0 0 1024 1024" xml:space="preserve">
<desc>Created with Fabric.js 2.4.6</desc>
<defs>
</defs>
<rect x="0" y="0" width="100%" height="100%" fill="rgb(255,255,255)"></rect>
<g transform="matrix(1.57 0 0 1 512 512)" id="background-logo"  >
<rect style="stroke: none; stroke-width: 1; stroke-dasharray: none; stroke-linecap: butt; stroke-dashoffset: 0; stroke-linejoin: miter; stroke-miterlimit: 4; fill: rgb(255,255,255); fill-rule: nonzero; opacity: 1;"  x="-325.5" y="-512" rx="0" ry="0" width="651" height="1024" />
</g>
<g transform="matrix(0 1.89 -1.89 0 523 417.72)" style="" id="logo-logo"  >
	<g transform="matrix(1.24 0 0 -1.24 -36.52 -20.9)" id="logo-logo"  >
<path style="stroke: none; stroke-width: 1; stroke-dasharray: none; stroke-linecap: butt; stroke-dashoffset: 0; stroke-linejoin: miter; stroke-miterlimit: 4; fill: rgb(249,130,22); fill-rule: evenodd; opacity: 1;"  transform=" translate(76.32, 52.78)" d="M 0 0 L 19.227 -0.138 L 19.156 -139.284 C -61.22 -52.328 -88.059 36.389 -171.87 27.992 C -108.796 45.847 -67.188 22.367 -15.105 -48.639 V 0 Z" stroke-linecap="round" />
</g>
	<g transform="matrix(1.24 0 0 -1.24 36.52 20.91)" id="logo-logo"  >
<path style="stroke: none; stroke-width: 1; stroke-dasharray: none; stroke-linecap: butt; stroke-dashoffset: 0; stroke-linejoin: miter; stroke-miterlimit: 4; fill: rgb(249,130,22); fill-rule: evenodd; opacity: 1;"  transform=" translate(-76.32, -52.78)" d="m 0 0 l -19.227 0.138 l 0.071 139.146 C 61.22 52.328 88.059 -36.389 171.87 -27.992 C 108.796 -45.847 67.188 -22.367 15.105 48.639 V 0 Z" stroke-linecap="round" />
</g>
	<g transform="matrix(1.24 0 0 -1.24 4.79 0)" id="logo-logo"  >
<path style="stroke: none; stroke-width: 1; stroke-dasharray: none; stroke-linecap: butt; stroke-dashoffset: 0; stroke-linejoin: miter; stroke-miterlimit: 4; fill: rgb(255,255,255); fill-rule: evenodd; opacity: 1;"  transform=" translate(0, -31.76)" d="M 0 0 C 17.492 0 31.759 14.267 31.759 31.759 C 31.759 49.251 17.492 63.518 0 63.518 C -17.492 63.518 -31.759 49.251 -31.759 31.759 C -31.759 14.267 -17.492 0 0 0" stroke-linecap="round" />
</g>
	<g transform="matrix(1.24 0 0 -1.24 4.79 0)" id="logo-logo"  >
<path style="stroke: none; stroke-width: 1; stroke-dasharray: none; stroke-linecap: butt; stroke-dashoffset: 0; stroke-linejoin: miter; stroke-miterlimit: 4; fill: rgb(249,130,22); fill-rule: evenodd; opacity: 1;"  transform=" translate(0, -22.45)" d="M 0 0 C 12.367 0 22.453 10.086 22.453 22.453 C 22.453 34.819 12.367 44.906 0 44.906 C -12.366 44.906 -22.453 34.819 -22.453 22.453 C -22.453 10.086 -12.366 0 0 0" stroke-linecap="round" />
</g>
</g>
<g transform="matrix(1.57 0 0 1.57 512 791.69)"  >
<path style="stroke: none; stroke-width: 1; stroke-dasharray: none; stroke-linecap: butt; stroke-dashoffset: 0; stroke-linejoin: miter; stroke-miterlimit: 4; fill: rgb(47,49,54); fill-rule: nonzero; opacity: ;"  transform=" translate(-309.47, 25.35)" d="M 0 -50.14 L 0 -50.14 Q 0 -53.34 1.16 -56.01 Q 2.32 -58.68 4.34 -60.81 Q 6.35 -62.95 9.07 -64.55 Q 11.78 -66.15 14.94 -67.21 Q 18.09 -68.28 21.52 -68.81 Q 24.96 -69.35 28.39 -69.35 L 28.39 -69.35 Q 32.19 -69.35 34.3 -68.63 Q 36.41 -67.91 37.41 -66.89 Q 38.41 -65.87 38.59 -64.76 Q 38.78 -63.64 38.78 -62.9 L 38.78 -62.9 L 38.78 -6.08 Q 38.78 -2.5 36.9 -0.88 Q 35.02 0.74 31.17 0.74 L 31.17 0.74 Q 27.28 0.74 25.42 -0.88 Q 23.56 -2.5 23.56 -6.08 L 23.56 -6.08 L 23.56 -61.93 Q 23.56 -62.95 23.33 -63.55 Q 23.1 -64.15 22.68 -64.5 Q 22.27 -64.85 21.69 -64.96 Q 21.11 -65.08 20.41 -65.08 L 20.41 -65.08 Q 19.39 -65.08 17.88 -64.76 Q 16.37 -64.43 14.7 -63.78 Q 13.03 -63.13 11.34 -62.18 Q 9.65 -61.23 8.33 -60.02 Q 7 -58.82 6.17 -57.33 Q 5.33 -55.85 5.33 -54.13 L 5.33 -54.13 Q 5.33 -52.65 5.73 -51.77 Q 6.12 -50.89 6.63 -50.45 Q 7.14 -50 7.68 -49.89 Q 8.21 -49.77 8.44 -49.77 L 8.44 -49.77 Q 9.6 -49.77 10.34 -50.17 Q 11.09 -50.56 11.69 -51 Q 12.29 -51.44 12.83 -51.84 Q 13.36 -52.23 14.06 -52.23 L 14.06 -52.23 Q 14.61 -52.23 15.24 -51.98 Q 15.86 -51.72 16.4 -51.16 Q 16.93 -50.61 17.3 -49.7 Q 17.67 -48.8 17.67 -47.5 L 17.67 -47.5 Q 17.67 -45.64 16.95 -44.3 Q 16.24 -42.95 15.1 -42.05 Q 13.96 -41.15 12.5 -40.7 Q 11.04 -40.26 9.6 -40.26 L 9.6 -40.26 Q 7.38 -40.26 5.59 -41.03 Q 3.8 -41.79 2.55 -43.14 Q 1.3 -44.48 0.65 -46.29 Q 0 -48.1 0 -50.14 Z M 46.85 -42.26 L 45.88 -43.42 Q 46.94 -44.3 48.27 -45.16 Q 49.59 -46.02 51.12 -46.67 Q 52.65 -47.31 54.41 -47.73 Q 56.17 -48.15 58.12 -48.15 L 58.12 -48.15 Q 61.14 -48.15 62.81 -47.15 Q 64.48 -46.15 65.27 -44.76 Q 66.05 -43.37 66.22 -41.86 Q 66.38 -40.36 66.38 -39.34 L 66.38 -39.34 Q 68.1 -41.79 70.28 -43.74 L 70.28 -43.74 Q 71.16 -44.58 72.25 -45.37 Q 73.34 -46.15 74.57 -46.78 Q 75.8 -47.41 77.16 -47.78 Q 78.53 -48.15 79.97 -48.15 L 79.97 -48.15 Q 83.13 -48.15 85.56 -46.94 Q 88 -45.74 89.67 -42.91 Q 91.34 -40.08 92.22 -35.42 Q 93.1 -30.75 93.1 -23.84 L 93.1 -23.84 Q 93.1 -17.12 91.89 -12.15 Q 90.69 -7.19 88.74 -3.71 Q 86.79 -0.23 84.33 1.97 Q 81.87 4.17 79.37 5.43 Q 76.86 6.68 74.57 7.17 Q 72.27 7.65 70.6 7.7 L 70.6 7.7 L 70.09 5.8 Q 71.48 5.47 72.66 4.78 Q 73.85 4.08 74.82 2.74 Q 75.8 1.39 76.54 -0.67 Q 77.28 -2.74 77.81 -5.84 Q 78.35 -8.95 78.6 -13.2 Q 78.86 -17.44 78.86 -23.1 L 78.86 -23.1 Q 78.86 -28.95 78.32 -32.45 Q 77.79 -35.95 76.91 -37.78 Q 76.03 -39.61 74.96 -40.19 Q 73.89 -40.77 72.78 -40.77 L 72.78 -40.77 Q 71.44 -40.77 70.39 -40.05 Q 69.35 -39.34 68.58 -38.41 Q 67.82 -37.48 67.28 -36.55 Q 66.75 -35.63 66.38 -35.16 L 66.38 -35.16 L 66.38 -4.17 Q 66.38 -3.57 66.19 -2.71 Q 66.01 -1.86 65.29 -1.09 Q 64.57 -0.32 63.16 0.21 Q 61.74 0.74 59.28 0.74 L 59.28 0.74 Q 56.82 0.74 55.41 0.16 Q 53.99 -0.42 53.25 -1.21 Q 52.51 -1.99 52.32 -2.83 Q 52.14 -3.66 52.14 -4.17 L 52.14 -4.17 L 52.14 -39.99 Q 52.14 -41.33 51.51 -42.33 Q 50.89 -43.33 49.4 -43.33 L 49.4 -43.33 Q 48.61 -43.33 48.06 -43.05 Q 47.5 -42.77 46.85 -42.26 L 46.85 -42.26 Z M 80.48 16.24 L 80.48 16.24 Q 80.48 15.4 80.71 14.54 Q 80.94 13.68 81.41 12.99 Q 81.87 12.29 82.55 11.85 Q 83.22 11.41 84.1 11.41 L 84.1 11.41 Q 84.61 11.41 85 11.92 Q 85.4 12.43 85.82 13.17 Q 86.23 13.92 86.77 14.82 Q 87.3 15.73 88.13 16.47 Q 88.97 17.21 90.2 17.72 Q 91.43 18.23 93.19 18.23 L 93.19 18.23 Q 95.56 18.23 97.37 17.28 Q 99.17 16.33 100.47 14.66 Q 101.77 12.99 102.65 10.72 Q 103.54 8.44 104.05 5.84 Q 104.56 3.25 104.76 0.42 Q 104.97 -2.41 104.97 -5.24 L 104.97 -5.24 L 104.97 -44.16 L 96.44 -44.16 L 96.44 -47.5 L 104.97 -47.5 L 104.97 -53.02 Q 104.97 -58.45 106.74 -62.11 Q 108.5 -65.78 111.37 -68 Q 114.25 -70.23 117.89 -71.2 Q 121.53 -72.18 125.29 -72.18 L 125.29 -72.18 Q 127.38 -72.18 129.44 -71.71 Q 131.51 -71.25 133.36 -70.18 L 133.36 -70.18 Q 133.78 -70.6 134.45 -70.95 Q 135.12 -71.3 135.96 -71.57 Q 136.79 -71.85 137.77 -72.02 Q 138.74 -72.18 139.76 -72.18 L 139.76 -72.18 Q 142.27 -72.18 143.68 -71.55 Q 145.1 -70.93 145.79 -69.95 Q 146.49 -68.98 146.67 -67.82 Q 146.86 -66.66 146.86 -65.64 L 146.86 -65.64 L 146.86 -3.9 Q 146.86 -3.29 146.65 -2.48 Q 146.44 -1.67 145.68 -0.95 Q 144.91 -0.23 143.47 0.26 Q 142.04 0.74 139.58 0.74 L 139.58 0.74 Q 137.12 0.74 135.73 0.16 Q 134.34 -0.42 133.64 -1.21 Q 132.94 -1.99 132.78 -2.83 Q 132.62 -3.66 132.62 -4.17 L 132.62 -4.17 L 132.62 -61.18 Q 131.78 -61.88 131.27 -63.16 Q 130.76 -64.43 130.16 -65.68 Q 129.56 -66.94 128.61 -67.86 Q 127.66 -68.79 125.89 -68.79 L 125.89 -68.79 Q 124.59 -68.79 123.39 -68.3 Q 122.18 -67.82 121.25 -66.68 Q 120.33 -65.54 119.77 -63.6 Q 119.21 -61.65 119.21 -58.73 L 119.21 -58.73 L 119.21 -47.5 L 128.44 -47.5 L 128.44 -44.16 L 119.21 -44.16 L 119.21 -7.61 Q 119.21 -1.3 117.57 4.04 Q 115.92 9.37 112.58 13.24 Q 109.24 17.12 104.23 19.3 Q 99.22 21.48 92.54 21.48 L 92.54 21.48 Q 90.18 21.48 88 21.08 Q 85.82 20.69 84.15 19.99 Q 82.48 19.3 81.48 18.35 Q 80.48 17.4 80.48 16.24 Z M 155.58 -22.68 L 155.58 -22.68 Q 155.58 -26.9 156.65 -30.43 Q 157.71 -33.96 159.55 -36.78 Q 161.38 -39.61 163.81 -41.75 Q 166.25 -43.88 168.94 -45.3 Q 171.63 -46.71 174.44 -47.43 Q 177.24 -48.15 179.84 -48.15 L 179.84 -48.15 Q 183.27 -48.15 185.83 -47.41 Q 188.38 -46.67 190.07 -45.41 Q 191.76 -44.16 192.6 -42.51 Q 193.43 -40.87 193.43 -39.06 L 193.43 -39.06 Q 193.43 -36.88 192.18 -35.14 Q 190.93 -33.4 188.84 -32.1 L 188.84 -32.1 L 170.52 -21.29 Q 170.52 -19.81 170.96 -18.07 Q 171.4 -16.33 172.23 -14.57 Q 173.07 -12.8 174.3 -11.2 Q 175.53 -9.6 177.13 -8.35 Q 178.73 -7.1 180.68 -6.35 Q 182.62 -5.61 184.94 -5.61 L 184.94 -5.61 Q 186.57 -5.61 187.96 -5.98 Q 189.35 -6.35 190.56 -7 Q 191.76 -7.65 192.88 -8.51 Q 193.99 -9.37 195.1 -10.34 L 195.1 -10.34 L 196.26 -9.23 Q 195.2 -7.79 193.53 -6.08 Q 191.86 -4.36 189.49 -2.85 Q 187.12 -1.35 183.97 -0.35 Q 180.82 0.65 176.78 0.65 L 176.78 0.65 Q 172.74 0.65 168.92 -0.81 Q 165.09 -2.27 162.12 -5.2 Q 159.15 -8.12 157.37 -12.48 Q 155.58 -16.84 155.58 -22.68 Z M 170.05 -25.1 L 170.05 -25.1 L 179.84 -30.71 Q 180.44 -31.08 180.84 -31.43 Q 181.23 -31.77 181.46 -32.26 Q 181.7 -32.75 181.81 -33.47 Q 181.93 -34.19 181.93 -35.25 L 181.93 -35.25 Q 181.93 -36.41 181.67 -37.83 Q 181.42 -39.24 180.82 -40.5 Q 180.21 -41.75 179.28 -42.58 Q 178.36 -43.42 177.06 -43.42 L 177.06 -43.42 Q 175.39 -43.42 174.21 -42.42 Q 173.02 -41.42 172.26 -39.85 Q 171.49 -38.27 171.05 -36.25 Q 170.61 -34.23 170.38 -32.19 Q 170.15 -30.15 170.1 -28.27 Q 170.05 -26.39 170.05 -25.1 Z M 198.63 -22.31 L 198.63 -22.31 Q 198.63 -26.53 199.69 -30.08 Q 200.76 -33.63 202.59 -36.51 Q 204.43 -39.38 206.86 -41.56 Q 209.3 -43.74 211.99 -45.2 Q 214.68 -46.67 217.48 -47.41 Q 220.29 -48.15 222.89 -48.15 L 222.89 -48.15 Q 226.32 -48.15 228.87 -47.36 Q 231.42 -46.57 233.12 -45.27 Q 234.81 -43.97 235.64 -42.28 Q 236.48 -40.59 236.48 -38.78 L 236.48 -38.78 Q 236.48 -37.43 236.13 -36.2 Q 235.78 -34.98 235.11 -34.07 Q 234.44 -33.17 233.42 -32.63 Q 232.4 -32.1 231.05 -32.1 L 231.05 -32.1 Q 229.61 -32.1 228.64 -32.54 Q 227.67 -32.98 227.06 -33.72 Q 226.46 -34.47 226.18 -35.37 Q 225.9 -36.27 225.9 -37.25 L 225.9 -37.25 Q 225.9 -38.5 226.07 -39.66 Q 226.23 -40.82 226.11 -41.75 Q 226 -42.68 225.39 -43.23 Q 224.79 -43.79 223.26 -43.79 L 223.26 -43.79 Q 221.64 -43.79 219.83 -42.86 Q 218.02 -41.93 216.53 -39.94 Q 215.05 -37.94 214.07 -34.81 Q 213.1 -31.68 213.1 -27.28 L 213.1 -27.28 Q 213.1 -22.4 214.01 -18.39 Q 214.91 -14.38 216.72 -11.55 Q 218.53 -8.72 221.22 -7.17 Q 223.91 -5.61 227.53 -5.61 L 227.53 -5.61 Q 229.15 -5.61 230.61 -5.98 Q 232.07 -6.35 233.37 -7 Q 234.67 -7.65 235.85 -8.51 Q 237.04 -9.37 238.15 -10.34 L 238.15 -10.34 L 239.31 -9.23 Q 238.24 -7.79 236.57 -6.08 Q 234.9 -4.36 232.54 -2.85 Q 230.17 -1.35 227.02 -0.35 Q 223.86 0.65 219.83 0.65 L 219.83 0.65 Q 215.79 0.65 211.96 -0.9 Q 208.14 -2.46 205.17 -5.43 Q 202.2 -8.4 200.41 -12.64 Q 198.63 -16.88 198.63 -22.31 Z M 246.22 -44.16 L 241.03 -44.16 L 241.03 -47.5 Q 242.32 -47.5 244.64 -48.17 Q 246.96 -48.85 249.4 -50.42 Q 251.83 -52 253.92 -54.64 Q 256.01 -57.29 256.89 -61.18 L 256.89 -61.18 L 260.6 -61.18 L 260.6 -47.5 L 268.16 -47.5 Q 271.87 -47.5 271.87 -48.75 L 271.87 -48.75 Q 271.87 -49.22 271.41 -49.38 Q 270.94 -49.54 270.36 -49.8 Q 269.79 -50.05 269.32 -50.52 Q 268.86 -50.98 268.86 -52.05 L 268.86 -52.05 Q 268.86 -53.34 269.67 -54.09 Q 270.48 -54.83 271.78 -54.83 L 271.78 -54.83 Q 272.61 -54.83 273.24 -54.48 Q 273.87 -54.13 274.28 -53.55 Q 274.7 -52.97 274.91 -52.23 Q 275.12 -51.49 275.12 -50.75 L 275.12 -50.75 Q 275.12 -47.73 273.38 -45.95 Q 271.64 -44.16 267.79 -44.16 L 267.79 -44.16 L 260.6 -44.16 L 260.6 -9.88 Q 260.6 -7.42 261.53 -6.47 Q 262.46 -5.52 264.08 -5.52 L 264.08 -5.52 Q 265.33 -5.52 266.31 -6.22 Q 267.28 -6.91 267.98 -7.79 L 267.98 -7.79 Q 268.81 -8.77 269.41 -10.07 L 269.41 -10.07 L 270.85 -9.42 Q 270.16 -7.93 269.21 -6.17 Q 268.25 -4.41 266.68 -2.9 Q 265.1 -1.39 262.71 -0.37 Q 260.32 0.65 256.7 0.65 L 256.7 0.65 Q 254.66 0.65 252.78 0.05 Q 250.91 -0.56 249.44 -1.86 Q 247.98 -3.15 247.1 -5.1 Q 246.22 -7.05 246.22 -9.79 L 246.22 -9.79 L 246.22 -44.16 Z M 273.77 -42.26 L 272.8 -43.42 Q 273.87 -44.3 275.19 -45.16 Q 276.51 -46.02 278.04 -46.67 Q 279.57 -47.31 281.34 -47.73 Q 283.1 -48.15 285.05 -48.15 L 285.05 -48.15 Q 288.06 -48.15 289.73 -47.34 Q 291.4 -46.53 292.19 -45.34 Q 292.98 -44.16 293.14 -42.81 Q 293.3 -41.47 293.3 -40.45 L 293.3 -40.45 L 293.3 -4.17 Q 293.3 -3.57 293.09 -2.71 Q 292.89 -1.86 292.12 -1.09 Q 291.35 -0.32 289.92 0.21 Q 288.48 0.74 286.02 0.74 L 286.02 0.74 Q 283.56 0.74 282.17 0.16 Q 280.78 -0.42 280.08 -1.21 Q 279.39 -1.99 279.22 -2.83 Q 279.06 -3.66 279.06 -4.17 L 279.06 -4.17 L 279.06 -39.99 Q 279.06 -41.33 278.44 -42.33 Q 277.81 -43.33 276.33 -43.33 L 276.33 -43.33 Q 275.54 -43.33 274.98 -43.05 Q 274.42 -42.77 273.77 -42.26 L 273.77 -42.26 Z M 277.62 -58.73 L 277.62 -58.73 Q 277.62 -60.02 278.2 -61.21 Q 278.78 -62.39 279.83 -63.27 Q 280.87 -64.15 282.24 -64.66 Q 283.61 -65.17 285.23 -65.17 L 285.23 -65.17 Q 286.81 -65.17 288.18 -64.66 Q 289.55 -64.15 290.57 -63.27 Q 291.59 -62.39 292.17 -61.21 Q 292.75 -60.02 292.75 -58.73 L 292.75 -58.73 Q 292.75 -57.38 292.17 -56.22 Q 291.59 -55.06 290.57 -54.2 Q 289.55 -53.34 288.18 -52.83 Q 286.81 -52.32 285.23 -52.32 L 285.23 -52.32 Q 283.61 -52.32 282.24 -52.83 Q 280.87 -53.34 279.83 -54.2 Q 278.78 -55.06 278.2 -56.22 Q 277.62 -57.38 277.62 -58.73 Z M 302.02 -23.75 L 302.02 -23.75 Q 302.02 -29.83 303.79 -34.4 Q 305.55 -38.96 308.49 -42.03 Q 311.44 -45.09 315.34 -46.62 Q 319.23 -48.15 323.5 -48.15 L 323.5 -48.15 Q 327.77 -48.15 331.67 -46.73 Q 335.56 -45.32 338.51 -42.4 Q 341.45 -39.48 343.22 -35 Q 344.98 -30.52 344.98 -24.4 L 344.98 -24.4 Q 344.98 -18.32 343.22 -13.64 Q 341.45 -8.95 338.51 -5.75 Q 335.56 -2.55 331.67 -0.9 Q 327.77 0.74 323.5 0.74 L 323.5 0.74 Q 319.23 0.74 315.34 -0.81 Q 311.44 -2.37 308.49 -5.43 Q 305.55 -8.49 303.79 -13.08 Q 302.02 -17.67 302.02 -23.75 Z M 316.5 -23.75 L 316.5 -23.75 Q 316.5 -20.04 316.73 -16.49 Q 316.96 -12.94 317.7 -10.16 Q 318.44 -7.38 319.84 -5.68 Q 321.23 -3.99 323.5 -3.99 L 323.5 -3.99 Q 325.77 -3.99 327.17 -5.75 Q 328.56 -7.51 329.3 -10.39 Q 330.04 -13.27 330.3 -16.88 Q 330.55 -20.5 330.55 -24.21 L 330.55 -24.21 Q 330.55 -27.92 330.3 -31.38 Q 330.04 -34.84 329.3 -37.53 Q 328.56 -40.22 327.17 -41.82 Q 325.77 -43.42 323.5 -43.42 L 323.5 -43.42 Q 321.23 -43.42 319.84 -41.72 Q 318.44 -40.03 317.7 -37.27 Q 316.96 -34.51 316.73 -30.99 Q 316.5 -27.46 316.5 -23.75 Z M 348.92 -42.26 L 347.95 -43.42 Q 349.01 -44.3 350.34 -45.16 Q 351.66 -46.02 353.19 -46.67 Q 354.72 -47.31 356.48 -47.73 Q 358.24 -48.15 360.19 -48.15 L 360.19 -48.15 Q 363.21 -48.15 364.88 -47.15 Q 366.55 -46.15 367.34 -44.76 Q 368.13 -43.37 368.29 -41.86 Q 368.45 -40.36 368.45 -39.34 L 368.45 -39.34 Q 370.17 -41.79 372.35 -43.74 L 372.35 -43.74 Q 373.23 -44.58 374.32 -45.37 Q 375.41 -46.15 376.64 -46.78 Q 377.87 -47.41 379.23 -47.78 Q 380.6 -48.15 382.04 -48.15 L 382.04 -48.15 Q 385.2 -48.15 387.63 -46.94 Q 390.07 -45.74 391.74 -42.91 Q 393.41 -40.08 394.29 -35.42 Q 395.17 -30.75 395.17 -23.84 L 395.17 -23.84 Q 395.17 -17.12 393.96 -12.15 Q 392.76 -7.19 390.81 -3.71 Q 388.86 -0.23 386.4 1.97 Q 383.94 4.17 381.44 5.43 Q 378.93 6.68 376.64 7.17 Q 374.34 7.65 372.67 7.7 L 372.67 7.7 L 372.16 5.8 Q 373.55 5.47 374.74 4.78 Q 375.92 4.08 376.89 2.74 Q 377.87 1.39 378.61 -0.67 Q 379.35 -2.74 379.88 -5.84 Q 380.42 -8.95 380.67 -13.2 Q 380.93 -17.44 380.93 -23.1 L 380.93 -23.1 Q 380.93 -28.95 380.39 -32.45 Q 379.86 -35.95 378.98 -37.78 Q 378.1 -39.61 377.03 -40.19 Q 375.96 -40.77 374.85 -40.77 L 374.85 -40.77 Q 373.51 -40.77 372.46 -40.05 Q 371.42 -39.34 370.65 -38.41 Q 369.89 -37.48 369.35 -36.55 Q 368.82 -35.63 368.45 -35.16 L 368.45 -35.16 L 368.45 -4.17 Q 368.45 -3.57 368.26 -2.71 Q 368.08 -1.86 367.36 -1.09 Q 366.64 -0.32 365.23 0.21 Q 363.81 0.74 361.35 0.74 L 361.35 0.74 Q 358.89 0.74 357.48 0.16 Q 356.06 -0.42 355.32 -1.21 Q 354.58 -1.99 354.39 -2.83 Q 354.21 -3.66 354.21 -4.17 L 354.21 -4.17 L 354.21 -39.99 Q 354.21 -41.33 353.58 -42.33 Q 352.96 -43.33 351.47 -43.33 L 351.47 -43.33 Q 350.68 -43.33 350.13 -43.05 Q 349.57 -42.77 348.92 -42.26 L 348.92 -42.26 Z M 421.28 -6.17 L 421.28 -6.17 Q 421.28 -7.24 421.61 -8.4 Q 421.93 -9.56 422.65 -10.99 Q 423.37 -12.43 424.48 -14.31 Q 425.6 -16.19 427.18 -18.69 L 427.18 -18.69 L 450.37 -55.76 Q 450.93 -56.68 451.53 -57.64 Q 452.13 -58.59 452.62 -59.49 Q 453.11 -60.4 453.41 -61.18 Q 453.71 -61.97 453.71 -62.53 L 453.71 -62.53 Q 453.71 -63.74 452.55 -64.36 Q 451.39 -64.99 449.81 -65.24 Q 448.23 -65.5 446.61 -65.52 Q 444.99 -65.54 444.01 -65.54 L 444.01 -65.54 Q 441.51 -65.54 438.77 -65.08 Q 436.04 -64.62 433.74 -63.57 Q 431.44 -62.53 429.94 -60.84 Q 428.43 -59.14 428.43 -56.64 L 428.43 -56.64 Q 428.43 -55.25 428.96 -54.55 Q 429.49 -53.85 430.14 -53.62 L 430.14 -53.62 Q 430.89 -53.3 431.86 -53.39 L 431.86 -53.39 Q 432.51 -53.39 433.04 -53.55 Q 433.58 -53.72 434.04 -53.92 Q 434.5 -54.13 434.95 -54.3 Q 435.39 -54.46 435.85 -54.46 L 435.85 -54.46 Q 436.17 -54.46 436.68 -54.23 Q 437.19 -53.99 437.66 -53.53 Q 438.12 -53.07 438.45 -52.35 Q 438.77 -51.63 438.77 -50.65 L 438.77 -50.65 Q 438.77 -48.85 438.1 -47.57 Q 437.43 -46.29 436.38 -45.48 Q 435.34 -44.67 434.09 -44.28 Q 432.83 -43.88 431.67 -43.88 L 431.67 -43.88 Q 429.36 -43.88 427.59 -44.72 Q 425.83 -45.55 424.65 -46.9 Q 423.46 -48.24 422.86 -49.87 Q 422.26 -51.49 422.26 -53.11 L 422.26 -53.11 Q 422.26 -56.36 423.46 -58.84 Q 424.67 -61.32 426.73 -63.09 Q 428.8 -64.85 431.51 -66.03 Q 434.23 -67.21 437.24 -67.91 Q 440.26 -68.61 443.36 -68.88 Q 446.47 -69.16 449.35 -69.16 L 449.35 -69.16 Q 454.87 -69.16 458.83 -68.7 Q 462.8 -68.23 465.35 -67.4 Q 467.9 -66.56 469.11 -65.41 Q 470.31 -64.25 470.31 -62.81 L 470.31 -62.81 Q 470.31 -61.83 470.08 -60.77 Q 469.85 -59.7 469.27 -58.31 Q 468.69 -56.92 467.69 -55.13 Q 466.7 -53.34 465.21 -50.93 L 465.21 -50.93 L 441.28 -12.25 Q 440.35 -10.76 439.65 -9.35 Q 438.96 -7.93 438.96 -6.73 L 438.96 -6.73 Q 438.96 -5.71 439.63 -5.03 Q 440.3 -4.36 441.76 -3.97 Q 443.23 -3.57 445.54 -3.41 Q 447.86 -3.25 451.16 -3.25 L 451.16 -3.25 Q 453.66 -3.25 456.35 -3.64 Q 459.04 -4.04 461.27 -5.01 Q 463.5 -5.98 464.96 -7.58 Q 466.42 -9.18 466.42 -11.6 L 466.42 -11.6 Q 466.42 -13.03 465.89 -13.73 Q 465.35 -14.43 464.7 -14.7 L 464.7 -14.7 Q 463.96 -15.03 463.03 -14.94 L 463.03 -14.94 Q 462.34 -14.94 461.78 -14.77 Q 461.22 -14.61 460.74 -14.4 Q 460.25 -14.19 459.81 -14.03 Q 459.37 -13.87 458.9 -13.87 L 458.9 -13.87 Q 458.39 -13.87 457.88 -14.1 Q 457.37 -14.33 456.91 -14.8 Q 456.45 -15.26 456.17 -15.98 Q 455.89 -16.7 455.89 -17.67 L 455.89 -17.67 Q 455.89 -19.53 456.58 -20.83 Q 457.28 -22.13 458.35 -22.96 Q 459.41 -23.8 460.71 -24.19 Q 462.01 -24.58 463.22 -24.58 L 463.22 -24.58 Q 465.58 -24.58 467.37 -23.8 Q 469.16 -23.01 470.36 -21.71 Q 471.57 -20.41 472.17 -18.72 Q 472.77 -17.02 472.77 -15.21 L 472.77 -15.21 Q 472.77 -10.62 470.83 -7.58 Q 468.88 -4.55 465.28 -2.74 Q 461.69 -0.93 456.58 -0.19 Q 451.48 0.56 445.17 0.56 L 445.17 0.56 Q 437.66 0.56 432.97 -0.02 Q 428.29 -0.6 425.69 -1.55 Q 423.09 -2.5 422.19 -3.71 Q 421.28 -4.92 421.28 -6.17 Z M 478.48 -23.75 L 478.48 -23.75 Q 478.48 -29.83 480.24 -34.4 Q 482 -38.96 484.95 -42.03 Q 487.9 -45.09 491.79 -46.62 Q 495.69 -48.15 499.96 -48.15 L 499.96 -48.15 Q 504.22 -48.15 508.12 -46.73 Q 512.02 -45.32 514.96 -42.4 Q 517.91 -39.48 519.67 -35 Q 521.43 -30.52 521.43 -24.4 L 521.43 -24.4 Q 521.43 -18.32 519.67 -13.64 Q 517.91 -8.95 514.96 -5.75 Q 512.02 -2.55 508.12 -0.9 Q 504.22 0.74 499.96 0.74 L 499.96 0.74 Q 495.69 0.74 491.79 -0.81 Q 487.9 -2.37 484.95 -5.43 Q 482 -8.49 480.24 -13.08 Q 478.48 -17.67 478.48 -23.75 Z M 492.95 -23.75 L 492.95 -23.75 Q 492.95 -20.04 493.18 -16.49 Q 493.42 -12.94 494.16 -10.16 Q 494.9 -7.38 496.29 -5.68 Q 497.68 -3.99 499.96 -3.99 L 499.96 -3.99 Q 502.23 -3.99 503.62 -5.75 Q 505.01 -7.51 505.75 -10.39 Q 506.5 -13.27 506.75 -16.88 Q 507.01 -20.5 507.01 -24.21 L 507.01 -24.21 Q 507.01 -27.92 506.75 -31.38 Q 506.5 -34.84 505.75 -37.53 Q 505.01 -40.22 503.62 -41.82 Q 502.23 -43.42 499.96 -43.42 L 499.96 -43.42 Q 497.68 -43.42 496.29 -41.72 Q 494.9 -40.03 494.16 -37.27 Q 493.42 -34.51 493.18 -30.99 Q 492.95 -27.46 492.95 -23.75 Z M 525.38 -42.26 L 524.4 -43.42 Q 525.47 -44.3 526.79 -45.16 Q 528.11 -46.02 529.64 -46.67 Q 531.17 -47.31 532.94 -47.73 Q 534.7 -48.15 536.65 -48.15 L 536.65 -48.15 Q 539.66 -48.15 541.33 -47.15 Q 543 -46.15 543.79 -44.76 Q 544.58 -43.37 544.74 -41.86 Q 544.9 -40.36 544.9 -39.34 L 544.9 -39.34 Q 546.62 -41.79 548.8 -43.74 L 548.8 -43.74 Q 549.68 -44.58 550.77 -45.37 Q 551.86 -46.15 553.09 -46.78 Q 554.32 -47.41 555.69 -47.78 Q 557.06 -48.15 558.5 -48.15 L 558.5 -48.15 Q 561.65 -48.15 564.09 -46.94 Q 566.52 -45.74 568.19 -42.91 Q 569.86 -40.08 570.74 -35.42 Q 571.62 -30.75 571.62 -23.84 L 571.62 -23.84 Q 571.62 -17.12 570.42 -12.15 Q 569.21 -7.19 567.26 -3.71 Q 565.31 -0.23 562.86 1.97 Q 560.4 4.17 557.89 5.43 Q 555.39 6.68 553.09 7.17 Q 550.8 7.65 549.13 7.7 L 549.13 7.7 L 548.62 5.8 Q 550.01 5.47 551.19 4.78 Q 552.37 4.08 553.35 2.74 Q 554.32 1.39 555.06 -0.67 Q 555.81 -2.74 556.34 -5.84 Q 556.87 -8.95 557.13 -13.2 Q 557.38 -17.44 557.38 -23.1 L 557.38 -23.1 Q 557.38 -28.95 556.85 -32.45 Q 556.32 -35.95 555.43 -37.78 Q 554.55 -39.61 553.49 -40.19 Q 552.42 -40.77 551.31 -40.77 L 551.31 -40.77 Q 549.96 -40.77 548.92 -40.05 Q 547.87 -39.34 547.11 -38.41 Q 546.34 -37.48 545.81 -36.55 Q 545.28 -35.63 544.9 -35.16 L 544.9 -35.16 L 544.9 -4.17 Q 544.9 -3.57 544.72 -2.71 Q 544.53 -1.86 543.81 -1.09 Q 543.1 -0.32 541.68 0.21 Q 540.27 0.74 537.81 0.74 L 537.81 0.74 Q 535.35 0.74 533.93 0.16 Q 532.52 -0.42 531.78 -1.21 Q 531.04 -1.99 530.85 -2.83 Q 530.66 -3.66 530.66 -4.17 L 530.66 -4.17 L 530.66 -39.99 Q 530.66 -41.33 530.04 -42.33 Q 529.41 -43.33 527.93 -43.33 L 527.93 -43.33 Q 527.14 -43.33 526.58 -43.05 Q 526.03 -42.77 525.38 -42.26 L 525.38 -42.26 Z M 578.26 -22.68 L 578.26 -22.68 Q 578.26 -26.9 579.32 -30.43 Q 580.39 -33.96 582.22 -36.78 Q 584.06 -39.61 586.49 -41.75 Q 588.93 -43.88 591.62 -45.3 Q 594.31 -46.71 597.11 -47.43 Q 599.92 -48.15 602.52 -48.15 L 602.52 -48.15 Q 605.95 -48.15 608.5 -47.41 Q 611.05 -46.67 612.75 -45.41 Q 614.44 -44.16 615.27 -42.51 Q 616.11 -40.87 616.11 -39.06 L 616.11 -39.06 Q 616.11 -36.88 614.86 -35.14 Q 613.6 -33.4 611.52 -32.1 L 611.52 -32.1 L 593.19 -21.29 Q 593.19 -19.81 593.63 -18.07 Q 594.07 -16.33 594.91 -14.57 Q 595.74 -12.8 596.97 -11.2 Q 598.2 -9.6 599.8 -8.35 Q 601.4 -7.1 603.35 -6.35 Q 605.3 -5.61 607.62 -5.61 L 607.62 -5.61 Q 609.24 -5.61 610.63 -5.98 Q 612.03 -6.35 613.23 -7 Q 614.44 -7.65 615.55 -8.51 Q 616.67 -9.37 617.78 -10.34 L 617.78 -10.34 L 618.94 -9.23 Q 617.87 -7.79 616.2 -6.08 Q 614.53 -4.36 612.17 -2.85 Q 609.8 -1.35 606.65 -0.35 Q 603.49 0.65 599.46 0.65 L 599.46 0.65 Q 595.42 0.65 591.59 -0.81 Q 587.77 -2.27 584.8 -5.2 Q 581.83 -8.12 580.04 -12.48 Q 578.26 -16.84 578.26 -22.68 Z M 592.73 -25.1 L 592.73 -25.1 L 602.52 -30.71 Q 603.12 -31.08 603.51 -31.43 Q 603.91 -31.77 604.14 -32.26 Q 604.37 -32.75 604.49 -33.47 Q 604.6 -34.19 604.6 -35.25 L 604.6 -35.25 Q 604.6 -36.41 604.35 -37.83 Q 604.09 -39.24 603.49 -40.5 Q 602.89 -41.75 601.96 -42.58 Q 601.03 -43.42 599.73 -43.42 L 599.73 -43.42 Q 598.06 -43.42 596.88 -42.42 Q 595.7 -41.42 594.93 -39.85 Q 594.17 -38.27 593.73 -36.25 Q 593.29 -34.23 593.05 -32.19 Q 592.82 -30.15 592.78 -28.27 Q 592.73 -26.39 592.73 -25.1 Z" stroke-linecap="round" />
</g>
</svg>